<svg xmlns="http://www.w3.org/2000/svg" width="16.004" height="16.005" viewBox="0 0 16.004 16.005">
  <g id="badge" transform="translate(0 0)">
    <path id="Контур_39" data-name="Контур 39" d="M5.55,16.007A2.08,2.08,0,0,1,3.6,14.658l-.5-1.321A.748.748,0,0,0,2.67,12.9l-1.32-.5A2.08,2.08,0,0,1,.187,9.6L.771,8.314a.743.743,0,0,0,0-.617L.187,6.412A2.08,2.08,0,0,1,1.35,3.6l1.321-.5a.748.748,0,0,0,.436-.437l.5-1.32A2.08,2.08,0,0,1,6.411.188L7.694.772a.741.741,0,0,0,.617,0h0L9.6.188A2.08,2.08,0,0,1,12.4,1.351l.5,1.321a.748.748,0,0,0,.437.436l1.32.5a2.08,2.08,0,0,1,1.163,2.808L15.236,7.7a.743.743,0,0,0,0,.617L15.819,9.6A2.08,2.08,0,0,1,14.656,12.4l-1.321.5a.748.748,0,0,0-.436.437l-.5,1.32A2.08,2.08,0,0,1,9.6,15.82l-1.284-.584a.741.741,0,0,0-.617,0l-1.284.584a2.086,2.086,0,0,1-.861.186Zm0-14.672a.753.753,0,0,0-.286.057.739.739,0,0,0-.414.428l-.495,1.32A2.08,2.08,0,0,1,3.139,4.357l-1.32.495A.747.747,0,0,0,1.4,5.86l.584,1.284a2.079,2.079,0,0,1,0,1.721L1.4,10.148a.747.747,0,0,0,.418,1.008l1.32.5a2.078,2.078,0,0,1,1.217,1.217l.495,1.32a.747.747,0,0,0,1.008.418l1.284-.584a2.076,2.076,0,0,1,1.721,0l1.283.583a.747.747,0,0,0,1.008-.418l.5-1.32a2.078,2.078,0,0,1,1.217-1.217l1.32-.495a.747.747,0,0,0,.418-1.008l-.584-1.284a2.079,2.079,0,0,1,0-1.721l.583-1.283a.747.747,0,0,0-.418-1.008l-1.32-.5a2.078,2.078,0,0,1-1.217-1.217l-.495-1.32A.747.747,0,0,0,10.148,1.4l-1.284.584a2.081,2.081,0,0,1-1.721,0L5.86,1.4a.752.752,0,0,0-.309-.067Z" transform="translate(-0.001 -0.002)" fill="#fff"/>
    <path id="Контур_40" data-name="Контур 40" d="M8.334,9.668A1.334,1.334,0,1,1,9.668,8.334,1.335,1.335,0,0,1,8.334,9.668Z" transform="translate(-2.332 -2.333)" fill="#fff"/>
    <path id="Контур_41" data-name="Контур 41" d="M14.334,15.668a1.334,1.334,0,1,1,1.334-1.334A1.335,1.335,0,0,1,14.334,15.668Z" transform="translate(-4.33 -4.331)" fill="#fff"/>
    <path id="Контур_42" data-name="Контур 42" d="M8.666,13.67A.667.667,0,0,1,8.133,12.6l4-5.336a.667.667,0,1,1,1.067.8L9.2,13.4a.666.666,0,0,1-.534.267Z" transform="translate(-2.665 -2.333)" fill="#fff"/>
  </g>
</svg>
