<svg xmlns="http://www.w3.org/2000/svg" width="243.633" height="28.326" viewBox="0 0 243.633 28.326">
  <g id="Group_580" data-name="Group 580" transform="translate(-199 -452.678)">
    <g id="user" transform="translate(199 452.678)">
      <path id="Path_362" data-name="Path 362" d="M93.854,13.645a6.6,6.6,0,0,0,4.824-2,6.6,6.6,0,0,0,2-4.824,6.6,6.6,0,0,0-2-4.824A6.821,6.821,0,0,0,89.03,2a6.6,6.6,0,0,0-2,4.824,6.6,6.6,0,0,0,2,4.824A6.6,6.6,0,0,0,93.854,13.645Zm0,0" transform="translate(-82.216)" fill="#16a085"/>
      <path id="Path_363" data-name="Path 363" d="M23.575,255.415a16.852,16.852,0,0,0-.23-1.79,14.1,14.1,0,0,0-.44-1.8,8.889,8.889,0,0,0-.74-1.678,6.333,6.333,0,0,0-1.116-1.454,4.918,4.918,0,0,0-1.6-1.007,5.538,5.538,0,0,0-2.046-.37,2.076,2.076,0,0,0-1.109.47c-.332.217-.721.467-1.155.745a6.62,6.62,0,0,1-1.495.658,5.8,5.8,0,0,1-3.656,0,6.6,6.6,0,0,1-1.494-.658c-.43-.275-.819-.525-1.156-.745a2.074,2.074,0,0,0-1.108-.47,5.531,5.531,0,0,0-2.045.371,4.914,4.914,0,0,0-1.6,1.007,6.334,6.334,0,0,0-1.115,1.454,8.906,8.906,0,0,0-.74,1.679,14.136,14.136,0,0,0-.44,1.8,16.792,16.792,0,0,0-.23,1.79c-.038.542-.057,1.1-.057,1.673a4.7,4.7,0,0,0,1.4,3.558A5.029,5.029,0,0,0,5,261.96H18.636a5.028,5.028,0,0,0,3.6-1.313,4.7,4.7,0,0,0,1.4-3.559C23.632,256.518,23.613,255.955,23.575,255.415Zm0,0" transform="translate(0 -233.634)" fill="#16a085"/>
    </g>
    <g id="user-2" data-name="user" transform="translate(308 452.678)">
      <path id="Path_362-2" data-name="Path 362" d="M93.854,13.645a6.6,6.6,0,0,0,4.824-2,6.6,6.6,0,0,0,2-4.824,6.6,6.6,0,0,0-2-4.824A6.821,6.821,0,0,0,89.03,2a6.6,6.6,0,0,0-2,4.824,6.6,6.6,0,0,0,2,4.824A6.6,6.6,0,0,0,93.854,13.645Zm0,0" transform="translate(-82.216)" fill="#16a085"/>
      <path id="Path_363-2" data-name="Path 363" d="M23.575,255.415a16.852,16.852,0,0,0-.23-1.79,14.1,14.1,0,0,0-.44-1.8,8.889,8.889,0,0,0-.74-1.678,6.333,6.333,0,0,0-1.116-1.454,4.918,4.918,0,0,0-1.6-1.007,5.538,5.538,0,0,0-2.046-.37,2.076,2.076,0,0,0-1.109.47c-.332.217-.721.467-1.155.745a6.62,6.62,0,0,1-1.495.658,5.8,5.8,0,0,1-3.656,0,6.6,6.6,0,0,1-1.494-.658c-.43-.275-.819-.525-1.156-.745a2.074,2.074,0,0,0-1.108-.47,5.531,5.531,0,0,0-2.045.371,4.914,4.914,0,0,0-1.6,1.007,6.334,6.334,0,0,0-1.115,1.454,8.906,8.906,0,0,0-.74,1.679,14.136,14.136,0,0,0-.44,1.8,16.792,16.792,0,0,0-.23,1.79c-.038.542-.057,1.1-.057,1.673a4.7,4.7,0,0,0,1.4,3.558A5.029,5.029,0,0,0,5,261.96H18.636a5.028,5.028,0,0,0,3.6-1.313,4.7,4.7,0,0,0,1.4-3.559C23.632,256.518,23.613,255.955,23.575,255.415Zm0,0" transform="translate(0 -233.634)" fill="#16a085"/>
    </g>
    <g id="user_outline" data-name="user outline" transform="translate(419 452.678)">
      <path id="Path_364" data-name="Path 364" d="M93.854,13.645a6.6,6.6,0,0,0,4.824-2,6.6,6.6,0,0,0,2-4.824,6.6,6.6,0,0,0-2-4.824A6.821,6.821,0,0,0,89.03,2a6.6,6.6,0,0,0-2,4.824,6.6,6.6,0,0,0,2,4.824A6.6,6.6,0,0,0,93.854,13.645ZM90.2,3.172a5.161,5.161,0,0,1,7.3,0,4.932,4.932,0,0,1,1.513,3.65,4.932,4.932,0,0,1-1.513,3.65,5.16,5.16,0,0,1-7.3,0,4.931,4.931,0,0,1-1.513-3.65A4.932,4.932,0,0,1,90.2,3.172Zm0,0" transform="translate(-82.216)" fill="#909d9d"/>
      <path id="Path_365" data-name="Path 365" d="M23.575,255.415a16.852,16.852,0,0,0-.23-1.79,14.1,14.1,0,0,0-.44-1.8,8.89,8.89,0,0,0-.74-1.678,6.326,6.326,0,0,0-1.115-1.454,4.918,4.918,0,0,0-1.6-1.007,5.538,5.538,0,0,0-2.046-.37,2.076,2.076,0,0,0-1.109.47c-.332.217-.721.467-1.155.745a6.62,6.62,0,0,1-1.495.658,5.8,5.8,0,0,1-3.656,0,6.6,6.6,0,0,1-1.494-.658c-.43-.275-.819-.525-1.156-.745a2.074,2.074,0,0,0-1.108-.47,5.531,5.531,0,0,0-2.045.371,4.914,4.914,0,0,0-1.6,1.007,6.328,6.328,0,0,0-1.115,1.454,8.906,8.906,0,0,0-.74,1.679,14.136,14.136,0,0,0-.44,1.8,16.737,16.737,0,0,0-.23,1.79c-.038.541-.057,1.1-.057,1.673a4.7,4.7,0,0,0,1.4,3.558A5.028,5.028,0,0,0,5,261.96H18.636a5.029,5.029,0,0,0,3.6-1.313,4.7,4.7,0,0,0,1.4-3.559C23.632,256.518,23.613,255.955,23.575,255.415Zm-2.484,4.029a3.386,3.386,0,0,1-2.455.856H5a3.386,3.386,0,0,1-2.455-.855,3.071,3.071,0,0,1-.882-2.356c0-.531.018-1.055.053-1.558a15.1,15.1,0,0,1,.207-1.612,12.467,12.467,0,0,1,.387-1.586,7.25,7.25,0,0,1,.6-1.365,4.69,4.69,0,0,1,.82-1.074,3.263,3.263,0,0,1,1.066-.663,3.819,3.819,0,0,1,1.307-.252c.058.031.162.09.329.2.341.222.735.476,1.169.754a8.224,8.224,0,0,0,1.876.838,7.462,7.462,0,0,0,4.677,0,8.234,8.234,0,0,0,1.877-.839c.445-.284.827-.531,1.169-.753.168-.109.271-.168.329-.2a3.822,3.822,0,0,1,1.308.252,3.267,3.267,0,0,1,1.066.663,4.677,4.677,0,0,1,.82,1.074,7.226,7.226,0,0,1,.6,1.364,12.438,12.438,0,0,1,.387,1.586,15.222,15.222,0,0,1,.207,1.612h0c.035.5.053,1.025.053,1.557A3.071,3.071,0,0,1,21.091,259.444Zm0,0" transform="translate(0 -233.634)" fill="#909d9d"/>
    </g>
    <g id="Group_578" data-name="Group 578" transform="translate(-1 1)">
      <circle id="Ellipse_1" data-name="Ellipse 1" cx="2" cy="2" r="2" transform="translate(228 464)" fill="#16a085"/>
      <circle id="Ellipse_2" data-name="Ellipse 2" cx="2" cy="2" r="2" transform="translate(238 464)" fill="#16a085"/>
      <circle id="Ellipse_3" data-name="Ellipse 3" cx="2" cy="2" r="2" transform="translate(249 464)" fill="#16a085"/>
      <circle id="Ellipse_4" data-name="Ellipse 4" cx="2" cy="2" r="2" transform="translate(259 464)" fill="#16a085"/>
      <circle id="Ellipse_5" data-name="Ellipse 5" cx="2" cy="2" r="2" transform="translate(270 464)" fill="#16a085"/>
      <circle id="Ellipse_6" data-name="Ellipse 6" cx="2" cy="2" r="2" transform="translate(280 464)" fill="#16a085"/>
      <circle id="Ellipse_7" data-name="Ellipse 7" cx="2" cy="2" r="2" transform="translate(291 464)" fill="#16a085"/>
      <circle id="Ellipse_8" data-name="Ellipse 8" cx="2" cy="2" r="2" transform="translate(301 464)" fill="#16a085"/>
    </g>
    <g id="Group_579" data-name="Group 579" transform="translate(109 1)">
      <circle id="Ellipse_1-2" data-name="Ellipse 1" cx="2" cy="2" r="2" transform="translate(228 464)" fill="#16a085"/>
      <circle id="Ellipse_2-2" data-name="Ellipse 2" cx="2" cy="2" r="2" transform="translate(238 464)" fill="#16a085"/>
      <circle id="Ellipse_3-2" data-name="Ellipse 3" cx="2" cy="2" r="2" transform="translate(249 464)" fill="#16a085"/>
      <circle id="Ellipse_4-2" data-name="Ellipse 4" cx="2" cy="2" r="2" transform="translate(259 464)" fill="#16a085"/>
      <circle id="Ellipse_5-2" data-name="Ellipse 5" cx="2" cy="2" r="2" transform="translate(270 464)" fill="#16a085"/>
      <circle id="Ellipse_6-2" data-name="Ellipse 6" cx="2" cy="2" r="2" transform="translate(280 464)" fill="#16a085"/>
      <circle id="Ellipse_7-2" data-name="Ellipse 7" cx="2" cy="2" r="2" transform="translate(291 464)" fill="#16a085"/>
      <circle id="Ellipse_8-2" data-name="Ellipse 8" cx="2" cy="2" r="2" transform="translate(301 464)" fill="#16a085"/>
    </g>
  </g>
</svg>
