<svg xmlns="http://www.w3.org/2000/svg" width="38.815" height="38.815" viewBox="0 0 38.815 38.815">
  <path id="progress" d="M37.678,16H36.541V1.137A1.137,1.137,0,0,0,35.4,0H28.581a1.137,1.137,0,0,0-1.137,1.137V2.274H20.621a1.137,1.137,0,0,0-.946,1.768l1.854,2.781L19.674,9.6a1.137,1.137,0,0,0,.946,1.768h7.96a1.137,1.137,0,0,0,1.137-1.137V9.1h4.549V16H28.581a1.137,1.137,0,0,0-1.137,1.137v5.686h-7.96a1.137,1.137,0,0,0-1.137,1.137v3.412H10.31a1.137,1.137,0,0,0-1.137,1.137v3.412H1.137A1.137,1.137,0,0,0,0,33.054v4.624a1.137,1.137,0,0,0,1.137,1.137H37.678a1.137,1.137,0,0,0,1.137-1.137V17.133A1.137,1.137,0,0,0,37.678,16ZM27.444,9.1h-4.7l1.1-1.644a1.137,1.137,0,0,0,0-1.262l-1.1-1.644h4.7Zm2.274-6.823h4.549V6.823H29.718ZM2.274,34.191h6.9v2.35h-6.9Zm9.173-4.549h6.9v6.9h-6.9Zm9.173-4.549h6.823V36.541H20.621Zm15.92,11.448H29.718V18.271h6.823Z" fill="#ffb142"/>
</svg>
