<svg xmlns="http://www.w3.org/2000/svg" width="43.999" height="38.327" viewBox="0 0 43.999 38.327">
  <g id="customer" transform="translate(0 -33)">
    <path id="Контур_1" data-name="Контур 1" d="M176.476,47.953A7.476,7.476,0,1,0,169,40.476,7.485,7.485,0,0,0,176.476,47.953Zm0-12.375a4.9,4.9,0,1,1-4.9,4.9A4.9,4.9,0,0,1,176.476,35.578Z" transform="translate(-154.477)" fill="#ffb142"/>
    <path id="Контур_2" data-name="Контур 2" d="M381.726,106.453A4.726,4.726,0,1,0,377,101.726,4.732,4.732,0,0,0,381.726,106.453Zm0-6.875a2.148,2.148,0,1,1-2.148,2.148A2.151,2.151,0,0,1,381.726,99.578Z" transform="translate(-344.602 -58.5)" fill="#ffb142"/>
    <path id="Контур_3" data-name="Контур 3" d="M38.164,241H36.17a5.844,5.844,0,0,0-5.3,3.382A10.375,10.375,0,0,0,23.2,241H20.8a10.375,10.375,0,0,0-7.668,3.382A5.844,5.844,0,0,0,7.829,241H5.835A5.824,5.824,0,0,0,0,246.8v9.385A2.526,2.526,0,0,0,2.528,258.7H10.41a3.013,3.013,0,0,0,3,2.75H30.591a3.013,3.013,0,0,0,3-2.75h7.793A2.615,2.615,0,0,0,44,256.1v-9.3A5.824,5.824,0,0,0,38.164,241ZM2.578,246.8a3.243,3.243,0,0,1,3.257-3.222H7.829a3.243,3.243,0,0,1,3.257,3.222v.883c-.867,2.257-.687,3.61-.687,8.442H2.578Zm28.445,11.643a.432.432,0,0,1-.431.431H13.408a.432.432,0,0,1-.431-.431V251.4a7.831,7.831,0,0,1,7.822-7.822h2.4a7.831,7.831,0,0,1,7.822,7.822Zm10.4-2.348c0,.044.481.029-7.82.029,0-4.868.178-6.189-.687-8.442V246.8a3.243,3.243,0,0,1,3.257-3.222h1.994a3.243,3.243,0,0,1,3.257,3.222Z" transform="translate(0 -190.125)" fill="#ffb142"/>
    <path id="Контур_4" data-name="Контур 4" d="M29.726,106.453A4.726,4.726,0,1,0,25,101.726,4.732,4.732,0,0,0,29.726,106.453Zm0-6.875a2.148,2.148,0,1,1-2.148,2.148A2.151,2.151,0,0,1,29.726,99.578Z" transform="translate(-22.852 -58.5)" fill="#ffb142"/>
  </g>
</svg>
