<svg id="stopwatch" xmlns="http://www.w3.org/2000/svg" width="29.327" height="31.813" viewBox="0 0 29.327 31.813">
  <g id="Group_577" data-name="Group 577" transform="translate(0 0)">
    <g id="Group_576" data-name="Group 576" transform="translate(0)">
      <path id="Path_358" data-name="Path 358" d="M385.095,15.706l3.374,2.814a1.243,1.243,0,1,0,1.592-1.909L386.686,13.8a1.243,1.243,0,1,0-1.592,1.909Z" transform="translate(-361.99 -12.67)" fill="#ffb142"/>
      <path id="Path_359" data-name="Path 359" d="M34.288,18.809a1.237,1.237,0,0,0,.8-.288l3.374-2.814A1.243,1.243,0,1,0,36.866,13.8l-3.374,2.814a1.243,1.243,0,0,0,.8,2.2Z" transform="translate(-32.234 -12.671)" fill="#ffb142"/>
      <path id="Path_360" data-name="Path 360" d="M45.033,6.78a14.553,14.553,0,0,0-9.126-4.242v-1.3a1.243,1.243,0,0,0-2.485,0v1.3a14.664,14.664,0,0,0-9.126,24.98,14.666,14.666,0,0,0,19.059,1.443,1.243,1.243,0,1,0-1.474-2,12.162,12.162,0,1,1,3.461-3.949,1.243,1.243,0,1,0,2.177,1.2A14.671,14.671,0,0,0,45.033,6.78Z" transform="translate(-20 0)" fill="#ffb142"/>
      <path id="Path_361" data-name="Path 361" d="M224.539,151.424a1.243,1.243,0,0,0-1.748.184l-3.918,4.842a2.488,2.488,0,1,0,1.932,1.564l3.919-4.842A1.243,1.243,0,0,0,224.539,151.424Z" transform="translate(-203.822 -141.756)" fill="#ffb142"/>
    </g>
  </g>
</svg>
