<svg xmlns="http://www.w3.org/2000/svg" width="14" height="20.627" viewBox="0 0 14 20.627"><g transform="translate(-7.582)"><path d="M16.5,10.616v-5.1A3.682,3.682,0,0,1,20.311,2h0a3.682,3.682,0,0,1,3.811,3.513v5.1Z" transform="translate(-5.894)" fill="none" stroke="#424a60" stroke-linecap="round" stroke-miterlimit="10" stroke-width="4"/><rect width="14" height="11" transform="translate(7.582 9.627)" fill="#ebba16"/><path d="M26.494,36.977h0a1,1,0,0,1-.994-.994V33.994A1,1,0,0,1,26.494,33h0a1,1,0,0,1,.994.994v1.988A1,1,0,0,1,26.494,36.977Z" transform="translate(-11.912 -20.727)" fill="#424a60"/><rect width="14" height="2" transform="translate(7.582 18.627)" fill="#38454f"/></g></svg>