<svg id="card" xmlns="http://www.w3.org/2000/svg" width="179.024" height="131.09" viewBox="0 0 179.024 131.09">
  <path id="Path_35" data-name="Path 35" d="M87.051,161.906a16.919,16.919,0,0,0-8.491,2.273,16.839,16.839,0,0,0-8.506-2.273,17.025,17.025,0,1,0,0,34.049,16.851,16.851,0,0,0,8.506-2.271,17.024,17.024,0,1,0,8.491-31.778ZM60.02,178.932a10.047,10.047,0,0,1,12.974-9.6,16.99,16.99,0,0,0,0,19.192,10.044,10.044,0,0,1-12.974-9.6Zm27.03,10.031a10.031,10.031,0,1,1,10.031-10.031A10.043,10.043,0,0,1,87.051,188.962Zm0,0" transform="translate(-34.486 -105.295)" fill="#ea6676"/>
  <path id="Path_36" data-name="Path 36" d="M147.928,62.337V11.462A11.475,11.475,0,0,0,136.466,0h-125A11.477,11.477,0,0,0,0,11.462V99.539A11.479,11.479,0,0,0,11.465,111H113.252a34.457,34.457,0,1,0,34.676-48.666ZM11.465,6.993h125a4.474,4.474,0,0,1,4.469,4.469v8.894H6.993V11.462A4.476,4.476,0,0,1,11.465,6.993Zm0,97.017a4.477,4.477,0,0,1-4.472-4.472V44.48H58.151a3.5,3.5,0,0,0,0-6.993H6.993V27.35H140.935V37.487H89.777a3.5,3.5,0,1,0,0,6.993h51.158V62.365A34.17,34.17,0,0,0,129.387,65.7V63.147a3.5,3.5,0,0,0-3.5-3.5H92.5a3.5,3.5,0,0,0-3.5,3.5V84.127a3.5,3.5,0,0,0,3.5,3.5h18.8a34.5,34.5,0,0,0-.4,16.387ZM114.056,80.63H96V66.644h26.392v3.633A34.692,34.692,0,0,0,114.056,80.63ZM144.565,124.1a27.465,27.465,0,1,1,27.466-27.464A27.5,27.5,0,0,1,144.565,124.1Zm0,0" fill="#ea6676"/>
  <path id="Path_37" data-name="Path 37" d="M403.366,247.251a3.5,3.5,0,0,0-4.944,0l-4.569,4.567-4.567-4.567a3.5,3.5,0,0,0-4.944,4.944l4.567,4.567-4.567,4.569a3.5,3.5,0,1,0,4.944,4.944l4.567-4.567,4.569,4.567a3.5,3.5,0,0,0,4.944-4.944l-4.567-4.569,4.567-4.567A3.5,3.5,0,0,0,403.366,247.251Zm0,0" transform="translate(-249.287 -160.132)" fill="#ea6676"/>
  <path id="Path_38" data-name="Path 38" d="M205.223,114.221a3.5,3.5,0,1,1,3.438-2.871A3.534,3.534,0,0,1,205.223,114.221Zm0,0" transform="translate(-131.194 -69.74)" fill="#ea6676"/>
</svg>
