<svg xmlns="http://www.w3.org/2000/svg" width="151.833" height="132.851" viewBox="0 0 151.833 132.851">
  <g id="credit-card" transform="translate(0 -32.004)">
    <g id="Group_70" data-name="Group 70" transform="translate(0 60.47)">
      <g id="Group_69" data-name="Group 69">
        <path id="Path_31" data-name="Path 31" d="M147.088,184.933a4.747,4.747,0,0,0-4.745,4.745v33.213H9.49V165.954H61.682a4.745,4.745,0,1,0,0-9.49H9.49V137.486H61.682a4.745,4.745,0,1,0,0-9.49H9.49A9.493,9.493,0,0,0,0,137.486v85.406a9.493,9.493,0,0,0,9.49,9.49H142.343a9.493,9.493,0,0,0,9.49-9.49V189.678A4.747,4.747,0,0,0,147.088,184.933Z" transform="translate(0 -127.996)" fill="#27ae60"/>
      </g>
    </g>
    <g id="Group_72" data-name="Group 72" transform="translate(18.979 117.408)">
      <g id="Group_71" data-name="Group 71">
        <path id="Path_32" data-name="Path 32" d="M87.724,320H68.745a4.745,4.745,0,1,0,0,9.49H87.724a4.745,4.745,0,1,0,0-9.49Z" transform="translate(-64 -319.996)" fill="#27ae60"/>
      </g>
    </g>
    <g id="Group_74" data-name="Group 74" transform="translate(75.916 32.004)">
      <g id="Group_73" data-name="Group 73">
        <path id="Path_33" data-name="Path 33" d="M329.041,46.616,295.828,32.381a4.844,4.844,0,0,0-3.748,0L258.866,46.616A4.756,4.756,0,0,0,256,50.981V69.96c0,26.106,9.651,41.365,35.6,56.311a4.771,4.771,0,0,0,4.726,0c25.944-14.908,35.6-30.167,35.6-56.311V50.981A4.75,4.75,0,0,0,329.041,46.616ZM322.427,69.96c0,21.911-7.25,33.973-28.469,46.689C272.74,103.9,265.49,91.843,265.49,69.96V54.112l28.469-12.2,28.469,12.2Z" transform="translate(-256 -32.004)" fill="#27ae60"/>
      </g>
    </g>
    <g id="Group_76" data-name="Group 76" transform="translate(94.899 60.476)">
      <g id="Group_75" data-name="Group 75">
        <path id="Path_34" data-name="Path 34" d="M356.192,129.045a4.776,4.776,0,0,0-6.671.74L334.6,148.441l-5.9-8.825a4.743,4.743,0,1,0-7.9,5.257l9.49,14.234a4.783,4.783,0,0,0,3.748,2.116h.2a4.746,4.746,0,0,0,3.71-1.784l18.979-23.724A4.748,4.748,0,0,0,356.192,129.045Z" transform="translate(-320.011 -128.016)" fill="#27ae60"/>
      </g>
    </g>
  </g>
</svg>
